<svg version="1.1" id="Layer_1" xmlns="http://www.w3.org/2000/svg" xmlns:xlink="http://www.w3.org/1999/xlink" x="0px" y="0px" viewBox="0 0 64 64" enable-background="new 0 0 64 64" xml:space="preserve">
<g>
<g>
<g>
<g>
<path fill="#5570E9" stroke="#231F20" stroke-width="1.5" d="M31,1c17.7,1,31,14.3,31,31S49.7,63,31,63S1,49.7,1,31S14.3,1,31,1z" id="id_101"></path>
</g>
</g>
</g>
<g id="XMLID_14_">
<g>
<g>
<g>
<g>
<path fill="#FFFFFF" stroke="#231F20" d="M45.3,26.8c4.2,0,7.7,3.4,7.7,7.6c0,4.2-3.5,7.6-7.7,7.6H18.7c-4.2,0-7.7-3.4-7.7-7.6
							c0-3.7,2.7-6.8,6.3-7.5c0-0.2,0-0.3,0-0.5c0-3.2,2.7-5.9,5.9-5.9c0.7,0,1.4,0.1,2,0.3c1.6-3.5,5.1-5.9,9.2-5.9
							c5.6,0,10.1,4.5,10.1,10c0,0.6-0.1,1.2-0.2,1.7H45.3z" id="id_102"></path>
</g>
</g>
</g>
</g>
</g>
<g>
<g>
<g>
<polygon fill="#57A4FF" stroke="#231F20" points="32,55 24,46.3 28,46.3 28,35.7 36,35.7 36,46.3 40,46.3 				" id="id_103"></polygon>
</g>
</g>
</g>
</g>
</svg>