<?xml version="1.0" encoding="UTF-8" standalone="no"?> <svg width="512" height="512" viewBox="0 0 512 512" fill="none" xmlns="http://www.w3.org/2000/svg">
<path d="M136 318.73V464L16 416V275.09L136 318.73Z" fill="#5570E9"/>
<path d="M256 133.73V280L249.57 277.43L236 272L136 232V90.0898L256 133.73Z" fill="#5570E9"/>
<path d="M256 133.73 L 136 88 L 260 40 L 370 80 L256 133.73Z" fill="#FFFFFF" />
<path d="M136 318.73 L 16 280 L 136 230 L 250 270 L136 319.74" fill="#FFFFFF" />
<path d="M504 275 L 280 205 L 245 270 L 450 350 L504 275" fill="#FFFFFF" />
<path d="M376 318.73V464L256 416V272H276L262.43 277.43L376 318.73Z" fill="#5570E9"/>
<path d="M376 318.73L496 275.09V416L376 464V318.73Z" fill="#57A4FF"/>
<path d="M376 88V90.09L370.25 88H376Z" fill="#57A4FF"/>
<path d="M376 90.0898V232L276 272L262.43 277.43L256 280V133.73L376 90.0898Z" fill="#57A4FF"/>
<path d="M256 272V416L136 464V318.73L249.57 277.43L236 272H256Z" fill="#57A4FF"/>
<path d="M504 275.09C504 273.447 503.494 271.844 502.551 270.498C501.609 269.153 500.274 268.13 498.73 267.57L384 225.85V92.2296H383.69C384.249 90.2906 384.047 88.2113 383.125 86.4161C382.204 84.6209 380.632 83.2452 378.73 82.5696L258.73 38.9396C256.968 38.2897 255.032 38.2897 253.27 38.9396L133.27 82.5696C132.01 83.0327 130.887 83.8045 130.003 84.8143C129.119 85.8241 128.502 87.0397 128.21 88.3496H128V225.85L13.27 267.57C12.0103 268.033 10.8869 268.804 10.0028 269.814C9.11879 270.824 8.50234 272.04 8.21 273.35H8V415.17H8.2C7.77408 417.066 8.05397 419.052 8.98724 420.757C9.92051 422.461 11.4431 423.767 13.27 424.43L133.27 468.06C135.031 468.713 136.969 468.713 138.73 468.06L256 425.42L373.27 468.06C375.031 468.713 376.969 468.713 378.73 468.06L498.73 424.43C499.928 423.994 501.004 423.279 501.868 422.343C502.733 421.407 503.361 420.278 503.7 419.05H504V277.23H503.69C503.89 276.534 503.994 275.814 504 275.09V275.09ZM128 449.12L24 411.31V286.51L128 324.33V449.12ZM136 310.21L39.41 275.09L135.37 240.19L231.97 275.32L136 310.21ZM248 411.31L144 449.12V324.33L248 286.51V411.31ZM248 263.67L144 225.85V101.51L248 139.33V263.67ZM159.41 90.0896L256 54.9696L352.59 90.0896L256 125.21L159.41 90.0896ZM368 101.51V225.85L264 263.67V139.33L368 101.51ZM368 449.12L264 411.31V286.51L368 324.33V449.12ZM376 310.21L280.03 275.32L376.63 240.19L472.59 275.09L376 310.21ZM488 411.31L384 449.12V324.33L488 286.51V411.31Z" fill="#231F20"/>
</svg>
